<mxfile host="Electron" modified="2023-10-10T16:27:25.937Z" agent="Mozilla/5.0 (Windows NT 10.0; Win64; x64) AppleWebKit/537.36 (KHTML, like Gecko) draw.io/22.0.2 Chrome/114.0.5735.289 Electron/25.8.4 Safari/537.36" etag="5BARZq6UYWuKv65eirNC" version="22.0.2" type="device">
  <diagram name="Page-1" id="uHUrfIVvx9b2arXOunB7">
    <mxGraphModel dx="1183" dy="685" grid="1" gridSize="10" guides="1" tooltips="1" connect="1" arrows="1" fold="1" page="1" pageScale="1" pageWidth="850" pageHeight="1100" math="1" shadow="0">
      <root>
        <mxCell id="0" />
        <mxCell id="1" parent="0" />
        <mxCell id="0g6yV1SNglEXK9q3MSw--4" value="$$&lt;br&gt;C_{in_2}&lt;br&gt;$$" style="text;html=1;align=center;verticalAlign=middle;resizable=0;points=[];autosize=1;strokeColor=none;fillColor=none;fontColor=#bf616a;" vertex="1" parent="1">
          <mxGeometry x="289.56" y="318" width="70" height="60" as="geometry" />
        </mxCell>
        <mxCell id="0g6yV1SNglEXK9q3MSw--2" value="$$&lt;br&gt;C_{in_1}&lt;br&gt;$$" style="text;html=1;align=center;verticalAlign=middle;resizable=0;points=[];autosize=1;strokeColor=none;fillColor=none;fontColor=#A3BE8C;" vertex="1" parent="1">
          <mxGeometry x="390" y="318" width="70" height="60" as="geometry" />
        </mxCell>
        <mxCell id="0g6yV1SNglEXK9q3MSw--1" value="$$&lt;br&gt;C_{in_0}&lt;br&gt;$$" style="text;html=1;align=center;verticalAlign=middle;resizable=0;points=[];autosize=1;strokeColor=none;fillColor=none;fontColor=#B48EAD;" vertex="1" parent="1">
          <mxGeometry x="490.13" y="318" width="70" height="60" as="geometry" />
        </mxCell>
        <mxCell id="jRbW4b_myETGWLnF5Oeu-1" value="" style="verticalLabelPosition=bottom;shadow=0;dashed=0;align=center;html=1;verticalAlign=top;shape=mxgraph.electrical.logic_gates.logic_gate;operation=xor;rotation=90;" parent="1" vertex="1">
          <mxGeometry x="233.43" y="245.82" width="53.13" height="40" as="geometry" />
        </mxCell>
        <mxCell id="jRbW4b_myETGWLnF5Oeu-2" value="" style="verticalLabelPosition=bottom;shadow=0;dashed=0;align=center;html=1;verticalAlign=top;shape=mxgraph.electrical.logic_gates.logic_gate;operation=xor;rotation=90;" parent="1" vertex="1">
          <mxGeometry x="333" y="245.82" width="53.13" height="40" as="geometry" />
        </mxCell>
        <mxCell id="jRbW4b_myETGWLnF5Oeu-3" value="" style="verticalLabelPosition=bottom;shadow=0;dashed=0;align=center;html=1;verticalAlign=top;shape=mxgraph.electrical.logic_gates.logic_gate;operation=xor;rotation=90;" parent="1" vertex="1">
          <mxGeometry x="433" y="245.82" width="53.13" height="40" as="geometry" />
        </mxCell>
        <mxCell id="jRbW4b_myETGWLnF5Oeu-4" value="" style="verticalLabelPosition=bottom;shadow=0;dashed=0;align=center;html=1;verticalAlign=top;shape=mxgraph.electrical.logic_gates.logic_gate;operation=xor;rotation=90;" parent="1" vertex="1">
          <mxGeometry x="533" y="245.82" width="53.13" height="40" as="geometry" />
        </mxCell>
        <mxCell id="jRbW4b_myETGWLnF5Oeu-5" value="" style="endArrow=oval;html=1;rounded=0;exitX=0;exitY=0.25;exitDx=0;exitDy=0;exitPerimeter=0;endFill=1;strokeColor=#EBCB8B;" parent="1" source="jRbW4b_myETGWLnF5Oeu-4" edge="1">
          <mxGeometry width="50" height="50" relative="1" as="geometry">
            <mxPoint x="570" y="190" as="sourcePoint" />
            <mxPoint x="570" y="200" as="targetPoint" />
          </mxGeometry>
        </mxCell>
        <mxCell id="jRbW4b_myETGWLnF5Oeu-6" value="" style="endArrow=none;html=1;rounded=0;exitX=0;exitY=0.75;exitDx=0;exitDy=0;exitPerimeter=0;strokeColor=#88C0D0;" parent="1" source="jRbW4b_myETGWLnF5Oeu-4" edge="1">
          <mxGeometry width="50" height="50" relative="1" as="geometry">
            <mxPoint x="550" y="229" as="sourcePoint" />
            <mxPoint x="550" y="150" as="targetPoint" />
          </mxGeometry>
        </mxCell>
        <mxCell id="jRbW4b_myETGWLnF5Oeu-7" value="" style="endArrow=oval;html=1;rounded=0;exitX=0;exitY=0.25;exitDx=0;exitDy=0;exitPerimeter=0;endFill=1;strokeColor=#EBCB8B;" parent="1" source="jRbW4b_myETGWLnF5Oeu-3" edge="1">
          <mxGeometry width="50" height="50" relative="1" as="geometry">
            <mxPoint x="470" y="229" as="sourcePoint" />
            <mxPoint x="470" y="200" as="targetPoint" />
          </mxGeometry>
        </mxCell>
        <mxCell id="jRbW4b_myETGWLnF5Oeu-8" value="" style="endArrow=none;html=1;rounded=0;exitX=0;exitY=0.75;exitDx=0;exitDy=0;exitPerimeter=0;strokeColor=#88C0D0;" parent="1" source="jRbW4b_myETGWLnF5Oeu-3" edge="1">
          <mxGeometry width="50" height="50" relative="1" as="geometry">
            <mxPoint x="450" y="220" as="sourcePoint" />
            <mxPoint x="450" y="150" as="targetPoint" />
          </mxGeometry>
        </mxCell>
        <mxCell id="jRbW4b_myETGWLnF5Oeu-9" value="" style="endArrow=oval;html=1;rounded=0;exitX=0;exitY=0.25;exitDx=0;exitDy=0;exitPerimeter=0;endFill=1;strokeColor=#EBCB8B;" parent="1" source="jRbW4b_myETGWLnF5Oeu-2" edge="1">
          <mxGeometry width="50" height="50" relative="1" as="geometry">
            <mxPoint x="370" y="219" as="sourcePoint" />
            <mxPoint x="370" y="200" as="targetPoint" />
          </mxGeometry>
        </mxCell>
        <mxCell id="jRbW4b_myETGWLnF5Oeu-10" value="" style="endArrow=none;html=1;rounded=0;exitX=0;exitY=0.75;exitDx=0;exitDy=0;exitPerimeter=0;strokeColor=#88C0D0;" parent="1" source="jRbW4b_myETGWLnF5Oeu-2" edge="1">
          <mxGeometry width="50" height="50" relative="1" as="geometry">
            <mxPoint x="350" y="189" as="sourcePoint" />
            <mxPoint x="350" y="150" as="targetPoint" />
          </mxGeometry>
        </mxCell>
        <mxCell id="jRbW4b_myETGWLnF5Oeu-11" value="" style="endArrow=none;html=1;rounded=0;exitX=0;exitY=0.25;exitDx=0;exitDy=0;exitPerimeter=0;strokeColor=#EBCB8B;" parent="1" source="jRbW4b_myETGWLnF5Oeu-1" edge="1">
          <mxGeometry width="50" height="50" relative="1" as="geometry">
            <mxPoint x="270" y="219" as="sourcePoint" />
            <mxPoint x="270" y="200" as="targetPoint" />
          </mxGeometry>
        </mxCell>
        <mxCell id="jRbW4b_myETGWLnF5Oeu-12" value="" style="endArrow=none;html=1;rounded=0;exitX=0;exitY=0.75;exitDx=0;exitDy=0;exitPerimeter=0;strokeColor=#88C0D0;" parent="1" source="jRbW4b_myETGWLnF5Oeu-1" edge="1">
          <mxGeometry width="50" height="50" relative="1" as="geometry">
            <mxPoint x="250" y="189" as="sourcePoint" />
            <mxPoint x="250" y="150" as="targetPoint" />
          </mxGeometry>
        </mxCell>
        <mxCell id="jRbW4b_myETGWLnF5Oeu-13" value="" style="endArrow=none;html=1;rounded=0;strokeColor=#EBCB8B;" parent="1" edge="1">
          <mxGeometry width="50" height="50" relative="1" as="geometry">
            <mxPoint x="270" y="200" as="sourcePoint" />
            <mxPoint x="650" y="200" as="targetPoint" />
          </mxGeometry>
        </mxCell>
        <mxCell id="jRbW4b_myETGWLnF5Oeu-14" value="" style="endArrow=none;html=1;rounded=0;strokeColor=#81A1C1;" parent="1" edge="1">
          <mxGeometry width="50" height="50" relative="1" as="geometry">
            <mxPoint x="590" y="320" as="sourcePoint" />
            <mxPoint x="590" y="150" as="targetPoint" />
          </mxGeometry>
        </mxCell>
        <mxCell id="jRbW4b_myETGWLnF5Oeu-15" value="" style="endArrow=none;html=1;rounded=0;strokeColor=#81A1C1;" parent="1" edge="1">
          <mxGeometry width="50" height="50" relative="1" as="geometry">
            <mxPoint x="490" y="320" as="sourcePoint" />
            <mxPoint x="490" y="150" as="targetPoint" />
          </mxGeometry>
        </mxCell>
        <mxCell id="jRbW4b_myETGWLnF5Oeu-16" value="" style="endArrow=none;html=1;rounded=0;strokeColor=#81A1C1;" parent="1" edge="1">
          <mxGeometry width="50" height="50" relative="1" as="geometry">
            <mxPoint x="390" y="320" as="sourcePoint" />
            <mxPoint x="390" y="150" as="targetPoint" />
          </mxGeometry>
        </mxCell>
        <mxCell id="jRbW4b_myETGWLnF5Oeu-17" value="" style="endArrow=none;html=1;rounded=0;strokeColor=#81A1C1;" parent="1" edge="1">
          <mxGeometry width="50" height="50" relative="1" as="geometry">
            <mxPoint x="290" y="320" as="sourcePoint" />
            <mxPoint x="290" y="150" as="targetPoint" />
          </mxGeometry>
        </mxCell>
        <mxCell id="jRbW4b_myETGWLnF5Oeu-18" value="" style="endArrow=none;html=1;rounded=0;entryX=1;entryY=0.5;entryDx=0;entryDy=0;entryPerimeter=0;" parent="1" target="jRbW4b_myETGWLnF5Oeu-4" edge="1">
          <mxGeometry width="50" height="50" relative="1" as="geometry">
            <mxPoint x="560" y="320" as="sourcePoint" />
            <mxPoint x="600" y="160" as="targetPoint" />
          </mxGeometry>
        </mxCell>
        <mxCell id="jRbW4b_myETGWLnF5Oeu-19" value="" style="endArrow=none;html=1;rounded=0;entryX=1;entryY=0.5;entryDx=0;entryDy=0;entryPerimeter=0;" parent="1" target="jRbW4b_myETGWLnF5Oeu-3" edge="1">
          <mxGeometry width="50" height="50" relative="1" as="geometry">
            <mxPoint x="460" y="320" as="sourcePoint" />
            <mxPoint x="450" y="302" as="targetPoint" />
          </mxGeometry>
        </mxCell>
        <mxCell id="jRbW4b_myETGWLnF5Oeu-20" value="" style="endArrow=none;html=1;rounded=0;entryX=1;entryY=0.5;entryDx=0;entryDy=0;entryPerimeter=0;" parent="1" target="jRbW4b_myETGWLnF5Oeu-2" edge="1">
          <mxGeometry width="50" height="50" relative="1" as="geometry">
            <mxPoint x="360" y="320" as="sourcePoint" />
            <mxPoint x="450" y="302" as="targetPoint" />
          </mxGeometry>
        </mxCell>
        <mxCell id="jRbW4b_myETGWLnF5Oeu-21" value="" style="endArrow=none;html=1;rounded=0;entryX=1;entryY=0.5;entryDx=0;entryDy=0;entryPerimeter=0;" parent="1" target="jRbW4b_myETGWLnF5Oeu-1" edge="1">
          <mxGeometry width="50" height="50" relative="1" as="geometry">
            <mxPoint x="260" y="320" as="sourcePoint" />
            <mxPoint x="440" y="312" as="targetPoint" />
          </mxGeometry>
        </mxCell>
        <mxCell id="jRbW4b_myETGWLnF5Oeu-33" style="edgeStyle=orthogonalEdgeStyle;rounded=0;orthogonalLoop=1;jettySize=auto;html=1;endArrow=none;endFill=0;entryX=0;entryY=0.75;entryDx=0;entryDy=0;entryPerimeter=0;startArrow=oval;startFill=1;strokeColor=#EBCB8B;" parent="1" target="jRbW4b_myETGWLnF5Oeu-35" edge="1">
          <mxGeometry relative="1" as="geometry">
            <mxPoint x="200" y="410" as="targetPoint" />
            <mxPoint x="220" y="360" as="sourcePoint" />
            <Array as="points">
              <mxPoint x="220" y="430" />
            </Array>
          </mxGeometry>
        </mxCell>
        <mxCell id="jRbW4b_myETGWLnF5Oeu-36" style="edgeStyle=orthogonalEdgeStyle;rounded=0;orthogonalLoop=1;jettySize=auto;html=1;exitX=0;exitY=0.5;exitDx=0;exitDy=0;strokeColor=#EBCB8B;" parent="1" source="jRbW4b_myETGWLnF5Oeu-22" edge="1">
          <mxGeometry relative="1" as="geometry">
            <mxPoint x="130" y="359.93023255813955" as="targetPoint" />
          </mxGeometry>
        </mxCell>
        <mxCell id="jRbW4b_myETGWLnF5Oeu-39" style="edgeStyle=orthogonalEdgeStyle;rounded=0;orthogonalLoop=1;jettySize=auto;html=1;exitX=0.5;exitY=1;exitDx=0;exitDy=0;" parent="1" source="jRbW4b_myETGWLnF5Oeu-22" edge="1">
          <mxGeometry relative="1" as="geometry">
            <mxPoint x="274.9047619047618" y="480" as="targetPoint" />
          </mxGeometry>
        </mxCell>
        <mxCell id="jRbW4b_myETGWLnF5Oeu-22" value="$$&lt;br&gt;\text{FA}\,4&lt;br&gt;$$" style="rounded=0;whiteSpace=wrap;html=1;" parent="1" vertex="1">
          <mxGeometry x="240" y="320" width="70" height="80" as="geometry" />
        </mxCell>
        <mxCell id="jRbW4b_myETGWLnF5Oeu-30" value="" style="edgeStyle=orthogonalEdgeStyle;rounded=0;orthogonalLoop=1;jettySize=auto;html=1;endArrow=none;endFill=0;strokeColor=#BF616A;" parent="1" source="jRbW4b_myETGWLnF5Oeu-24" target="jRbW4b_myETGWLnF5Oeu-22" edge="1">
          <mxGeometry relative="1" as="geometry" />
        </mxCell>
        <mxCell id="jRbW4b_myETGWLnF5Oeu-40" style="edgeStyle=orthogonalEdgeStyle;rounded=0;orthogonalLoop=1;jettySize=auto;html=1;exitX=0.5;exitY=1;exitDx=0;exitDy=0;" parent="1" source="jRbW4b_myETGWLnF5Oeu-24" edge="1">
          <mxGeometry relative="1" as="geometry">
            <mxPoint x="374.9047619047619" y="480" as="targetPoint" />
          </mxGeometry>
        </mxCell>
        <mxCell id="jRbW4b_myETGWLnF5Oeu-24" value="$$&lt;br&gt;\text{FA}\,3&lt;br&gt;$$" style="rounded=0;whiteSpace=wrap;html=1;" parent="1" vertex="1">
          <mxGeometry x="340" y="320" width="70" height="80" as="geometry" />
        </mxCell>
        <mxCell id="jRbW4b_myETGWLnF5Oeu-29" value="" style="edgeStyle=orthogonalEdgeStyle;rounded=0;orthogonalLoop=1;jettySize=auto;html=1;endArrow=none;endFill=0;strokeColor=#A3BE8C;" parent="1" source="jRbW4b_myETGWLnF5Oeu-26" target="jRbW4b_myETGWLnF5Oeu-24" edge="1">
          <mxGeometry relative="1" as="geometry" />
        </mxCell>
        <mxCell id="jRbW4b_myETGWLnF5Oeu-41" style="edgeStyle=orthogonalEdgeStyle;rounded=0;orthogonalLoop=1;jettySize=auto;html=1;exitX=0.5;exitY=1;exitDx=0;exitDy=0;" parent="1" source="jRbW4b_myETGWLnF5Oeu-26" edge="1">
          <mxGeometry relative="1" as="geometry">
            <mxPoint x="474.9047619047619" y="480" as="targetPoint" />
          </mxGeometry>
        </mxCell>
        <mxCell id="jRbW4b_myETGWLnF5Oeu-26" value="$$&lt;br&gt;\text{FA}\,2&lt;br&gt;$$" style="rounded=0;whiteSpace=wrap;html=1;" parent="1" vertex="1">
          <mxGeometry x="440" y="320" width="70" height="80" as="geometry" />
        </mxCell>
        <mxCell id="jRbW4b_myETGWLnF5Oeu-28" style="edgeStyle=orthogonalEdgeStyle;rounded=0;orthogonalLoop=1;jettySize=auto;html=1;exitX=0;exitY=0.5;exitDx=0;exitDy=0;entryX=1;entryY=0.5;entryDx=0;entryDy=0;endArrow=none;endFill=0;strokeColor=#B48EAD;" parent="1" source="jRbW4b_myETGWLnF5Oeu-27" target="jRbW4b_myETGWLnF5Oeu-26" edge="1">
          <mxGeometry relative="1" as="geometry" />
        </mxCell>
        <mxCell id="jRbW4b_myETGWLnF5Oeu-32" style="edgeStyle=orthogonalEdgeStyle;rounded=0;orthogonalLoop=1;jettySize=auto;html=1;exitX=1;exitY=0.5;exitDx=0;exitDy=0;endArrow=none;endFill=0;strokeColor=#EBCB8B;" parent="1" source="jRbW4b_myETGWLnF5Oeu-27" edge="1">
          <mxGeometry relative="1" as="geometry">
            <mxPoint x="630" y="360" as="targetPoint" />
          </mxGeometry>
        </mxCell>
        <mxCell id="jRbW4b_myETGWLnF5Oeu-42" style="edgeStyle=orthogonalEdgeStyle;rounded=0;orthogonalLoop=1;jettySize=auto;html=1;exitX=0.5;exitY=1;exitDx=0;exitDy=0;" parent="1" source="jRbW4b_myETGWLnF5Oeu-27" edge="1">
          <mxGeometry relative="1" as="geometry">
            <mxPoint x="574.9047619047619" y="480" as="targetPoint" />
          </mxGeometry>
        </mxCell>
        <mxCell id="jRbW4b_myETGWLnF5Oeu-27" value="$$&lt;br&gt;\text{FA}\,1&lt;br&gt;$$" style="rounded=0;whiteSpace=wrap;html=1;" parent="1" vertex="1">
          <mxGeometry x="540" y="320" width="70" height="80" as="geometry" />
        </mxCell>
        <mxCell id="jRbW4b_myETGWLnF5Oeu-31" value="" style="endArrow=oval;html=1;rounded=0;endFill=1;strokeColor=#EBCB8B;" parent="1" edge="1">
          <mxGeometry width="50" height="50" relative="1" as="geometry">
            <mxPoint x="630" y="360" as="sourcePoint" />
            <mxPoint x="630" y="200" as="targetPoint" />
          </mxGeometry>
        </mxCell>
        <mxCell id="jRbW4b_myETGWLnF5Oeu-37" style="edgeStyle=orthogonalEdgeStyle;rounded=0;orthogonalLoop=1;jettySize=auto;html=1;exitX=1;exitY=0.5;exitDx=0;exitDy=0;exitPerimeter=0;" parent="1" source="jRbW4b_myETGWLnF5Oeu-35" edge="1">
          <mxGeometry relative="1" as="geometry">
            <mxPoint x="130" y="440" as="targetPoint" />
          </mxGeometry>
        </mxCell>
        <mxCell id="jRbW4b_myETGWLnF5Oeu-35" value="" style="verticalLabelPosition=bottom;shadow=0;dashed=0;align=center;html=1;verticalAlign=top;shape=mxgraph.electrical.logic_gates.logic_gate;operation=xor;rotation=-180;" parent="1" vertex="1">
          <mxGeometry x="150" y="420" width="53.13" height="40" as="geometry" />
        </mxCell>
        <mxCell id="jRbW4b_myETGWLnF5Oeu-38" value="" style="endArrow=oval;html=1;rounded=0;exitX=0;exitY=0.25;exitDx=0;exitDy=0;exitPerimeter=0;startArrow=none;startFill=0;endFill=1;strokeColor=#BF616A;" parent="1" source="jRbW4b_myETGWLnF5Oeu-35" edge="1">
          <mxGeometry width="50" height="50" relative="1" as="geometry">
            <mxPoint x="325" y="400" as="sourcePoint" />
            <mxPoint x="325" y="360" as="targetPoint" />
            <Array as="points">
              <mxPoint x="325" y="450" />
            </Array>
          </mxGeometry>
        </mxCell>
        <mxCell id="jRbW4b_myETGWLnF5Oeu-43" value="$$&lt;br&gt;C_{out}&lt;br&gt;$$" style="text;html=1;align=center;verticalAlign=middle;resizable=0;points=[];autosize=1;strokeColor=none;fillColor=none;fontColor=#EBCB8B;" parent="1" vertex="1">
          <mxGeometry x="85" y="330" width="60" height="60" as="geometry" />
        </mxCell>
        <mxCell id="jRbW4b_myETGWLnF5Oeu-44" value="$$&lt;br&gt;V&lt;br&gt;$$" style="text;html=1;align=center;verticalAlign=middle;resizable=0;points=[];autosize=1;strokeColor=none;fillColor=none;" parent="1" vertex="1">
          <mxGeometry x="95" y="410" width="40" height="60" as="geometry" />
        </mxCell>
        <mxCell id="jRbW4b_myETGWLnF5Oeu-45" value="$$&lt;br&gt;S_3&lt;br&gt;$$" style="text;html=1;align=center;verticalAlign=middle;resizable=0;points=[];autosize=1;strokeColor=none;fillColor=none;" parent="1" vertex="1">
          <mxGeometry x="255" y="460" width="40" height="60" as="geometry" />
        </mxCell>
        <mxCell id="jRbW4b_myETGWLnF5Oeu-46" value="$$&lt;br&gt;S_2&lt;br&gt;$$" style="text;html=1;align=center;verticalAlign=middle;resizable=0;points=[];autosize=1;strokeColor=none;fillColor=none;" parent="1" vertex="1">
          <mxGeometry x="355" y="460" width="40" height="60" as="geometry" />
        </mxCell>
        <mxCell id="jRbW4b_myETGWLnF5Oeu-47" value="$$&lt;br&gt;S_1&lt;br&gt;$$" style="text;html=1;align=center;verticalAlign=middle;resizable=0;points=[];autosize=1;strokeColor=none;fillColor=none;" parent="1" vertex="1">
          <mxGeometry x="455" y="460" width="40" height="60" as="geometry" />
        </mxCell>
        <mxCell id="jRbW4b_myETGWLnF5Oeu-48" value="$$&lt;br&gt;S_0&lt;br&gt;$$" style="text;html=1;align=center;verticalAlign=middle;resizable=0;points=[];autosize=1;strokeColor=none;fillColor=none;" parent="1" vertex="1">
          <mxGeometry x="555" y="460" width="40" height="60" as="geometry" />
        </mxCell>
        <mxCell id="jRbW4b_myETGWLnF5Oeu-50" value="$$&lt;br&gt;G_1&lt;br&gt;$$" style="text;html=1;align=center;verticalAlign=middle;resizable=0;points=[];autosize=1;strokeColor=none;fillColor=none;" parent="1" vertex="1">
          <mxGeometry x="534.56" y="235.82" width="50" height="60" as="geometry" />
        </mxCell>
        <mxCell id="jRbW4b_myETGWLnF5Oeu-51" value="$$&lt;br&gt;G_2&lt;br&gt;$$" style="text;html=1;align=center;verticalAlign=middle;resizable=0;points=[];autosize=1;strokeColor=none;fillColor=none;" parent="1" vertex="1">
          <mxGeometry x="434.56" y="235.82" width="50" height="60" as="geometry" />
        </mxCell>
        <mxCell id="jRbW4b_myETGWLnF5Oeu-52" value="$$&lt;br&gt;G_3&lt;br&gt;$$" style="text;html=1;align=center;verticalAlign=middle;resizable=0;points=[];autosize=1;strokeColor=none;fillColor=none;" parent="1" vertex="1">
          <mxGeometry x="334.57" y="235.82" width="50" height="60" as="geometry" />
        </mxCell>
        <mxCell id="jRbW4b_myETGWLnF5Oeu-53" value="$$&lt;br&gt;G_4&lt;br&gt;$$" style="text;html=1;align=center;verticalAlign=middle;resizable=0;points=[];autosize=1;strokeColor=none;fillColor=none;" parent="1" vertex="1">
          <mxGeometry x="235" y="235.82" width="50" height="60" as="geometry" />
        </mxCell>
        <mxCell id="jRbW4b_myETGWLnF5Oeu-54" value="$$&lt;br&gt;G_5&lt;br&gt;$$" style="text;html=1;align=center;verticalAlign=middle;resizable=0;points=[];autosize=1;strokeColor=none;fillColor=none;" parent="1" vertex="1">
          <mxGeometry x="155" y="410" width="50" height="60" as="geometry" />
        </mxCell>
        <mxCell id="jRbW4b_myETGWLnF5Oeu-55" value="$$&lt;br&gt;in2_3&lt;br&gt;$$" style="text;html=1;align=center;verticalAlign=middle;resizable=0;points=[];autosize=1;strokeColor=none;fillColor=none;fontColor=#88C0D0;" parent="1" vertex="1">
          <mxGeometry x="225.43" y="106" width="50" height="60" as="geometry" />
        </mxCell>
        <mxCell id="jRbW4b_myETGWLnF5Oeu-56" value="$$&lt;br&gt;in2_2&lt;br&gt;$$" style="text;html=1;align=center;verticalAlign=middle;resizable=0;points=[];autosize=1;strokeColor=none;fillColor=none;fontColor=#88C0D0;" parent="1" vertex="1">
          <mxGeometry x="325.43" y="106" width="50" height="60" as="geometry" />
        </mxCell>
        <mxCell id="jRbW4b_myETGWLnF5Oeu-57" value="$$&lt;br&gt;in2_1&lt;br&gt;$$" style="text;html=1;align=center;verticalAlign=middle;resizable=0;points=[];autosize=1;strokeColor=none;fillColor=none;fontColor=#88C0D0;" parent="1" vertex="1">
          <mxGeometry x="425.43" y="106" width="50" height="60" as="geometry" />
        </mxCell>
        <mxCell id="jRbW4b_myETGWLnF5Oeu-58" value="$$&lt;br&gt;in2_0&lt;br&gt;$$" style="text;html=1;align=center;verticalAlign=middle;resizable=0;points=[];autosize=1;strokeColor=none;fillColor=none;fontColor=#88C0D0;" parent="1" vertex="1">
          <mxGeometry x="525.43" y="106" width="50" height="60" as="geometry" />
        </mxCell>
        <mxCell id="jRbW4b_myETGWLnF5Oeu-59" value="$$&lt;br&gt;in1_3&lt;br&gt;$$" style="text;html=1;align=center;verticalAlign=middle;resizable=0;points=[];autosize=1;strokeColor=none;fillColor=none;fontColor=#81A1C1;" parent="1" vertex="1">
          <mxGeometry x="265.43" y="106" width="50" height="60" as="geometry" />
        </mxCell>
        <mxCell id="jRbW4b_myETGWLnF5Oeu-60" value="$$&lt;br&gt;in1_2&lt;br&gt;$$" style="text;html=1;align=center;verticalAlign=middle;resizable=0;points=[];autosize=1;strokeColor=none;fillColor=none;fontColor=#81A1C1;" parent="1" vertex="1">
          <mxGeometry x="365.43" y="106" width="50" height="60" as="geometry" />
        </mxCell>
        <mxCell id="jRbW4b_myETGWLnF5Oeu-61" value="$$&lt;br&gt;in1_1&lt;br&gt;$$" style="text;html=1;align=center;verticalAlign=middle;resizable=0;points=[];autosize=1;strokeColor=none;fillColor=none;fontColor=#81A1C1;" parent="1" vertex="1">
          <mxGeometry x="465.43" y="106" width="50" height="60" as="geometry" />
        </mxCell>
        <mxCell id="jRbW4b_myETGWLnF5Oeu-62" value="$$&lt;br&gt;in1_0&lt;br&gt;$$" style="text;html=1;align=center;verticalAlign=middle;resizable=0;points=[];autosize=1;strokeColor=none;fillColor=none;fontColor=#81A1C1;" parent="1" vertex="1">
          <mxGeometry x="565.43" y="106" width="50" height="60" as="geometry" />
        </mxCell>
        <mxCell id="jRbW4b_myETGWLnF5Oeu-63" value="$$&lt;br&gt;M&lt;br&gt;$$" style="text;html=1;align=center;verticalAlign=middle;resizable=0;points=[];autosize=1;strokeColor=none;fillColor=none;fontColor=#EBCB8B;" parent="1" vertex="1">
          <mxGeometry x="643" y="170" width="40" height="60" as="geometry" />
        </mxCell>
      </root>
    </mxGraphModel>
  </diagram>
</mxfile>
